<svg width="120" height="109" viewBox="0 0 120 109" fill="none" xmlns="http://www.w3.org/2000/svg">
<g filter="url(#filter0_d_82_9)">
<path d="M28.5822 42.3197C33.108 38.9564 38.5289 37.1023 44.1125 37.0078C49.6961 36.9133 55.1734 38.583 59.8044 41.7914L64.5409 36.9195C58.6319 32.4334 51.4573 30.0584 44.1124 30.1569C36.7675 30.2554 29.6557 32.8221 23.8626 37.4651L28.5822 42.3197Z" fill="white"/>
<path d="M71.6802 61.5285C72.1905 65.3649 71.9279 69.2682 70.9087 72.9959C69.8895 76.7235 68.1355 80.1958 65.7558 83.1971C63.376 86.1983 60.4212 88.6643 57.0752 90.4419C53.7291 92.2194 50.0633 93.2706 46.3053 93.5299C42.5474 93.7893 38.7778 93.2513 35.2306 91.9495C31.6835 90.6476 28.4347 88.6098 25.6861 85.9624C22.9375 83.3151 20.7478 80.115 19.2531 76.5609C17.7585 73.0067 16.9908 69.1745 16.9977 65.3024C16.9977 64.3828 17.1827 63.519 17.2606 62.6286L11.4917 56.6932C10.1156 61.9437 9.94289 67.4508 10.9871 72.7815C12.0313 78.1122 14.264 83.1213 17.5096 87.415C20.7552 91.7086 24.9252 95.1698 29.692 97.5265C34.4587 99.8831 39.6922 101.071 44.981 100.997C50.2697 100.922 55.4697 99.588 60.172 97.0983C64.8744 94.6087 68.9509 91.0316 72.0812 86.6484C75.2115 82.2652 77.3102 77.1953 78.2123 71.8373C79.1145 66.4792 78.7955 60.979 77.2804 55.7691L71.6802 61.5285Z" fill="white"/>
<path d="M43.9337 85.2027L4 44.153L14.8294 33.0196L43.9337 62.9458L105.171 0L116 11.1334L43.9337 85.2027Z" fill="white"/>
</g>
<defs>
<filter id="filter0_d_82_9" x="0" y="0" width="120" height="109" filterUnits="userSpaceOnUse" color-interpolation-filters="sRGB">
<feFlood flood-opacity="0" result="BackgroundImageFix"/>
<feColorMatrix in="SourceAlpha" type="matrix" values="0 0 0 0 0 0 0 0 0 0 0 0 0 0 0 0 0 0 127 0" result="hardAlpha"/>
<feOffset dy="4"/>
<feGaussianBlur stdDeviation="2"/>
<feComposite in2="hardAlpha" operator="out"/>
<feColorMatrix type="matrix" values="0 0 0 0 0 0 0 0 0 0 0 0 0 0 0 0 0 0 0.25 0"/>
<feBlend mode="normal" in2="BackgroundImageFix" result="effect1_dropShadow_82_9"/>
<feBlend mode="normal" in="SourceGraphic" in2="effect1_dropShadow_82_9" result="shape"/>
</filter>
</defs>
</svg>
